<svg xmlns="http://www.w3.org/2000/svg" viewBox="0 0 200 200"
     class="stroke-svg" role="img" aria-label="Ordem de tracado da letra Vav: 1 movimento" data-strokes="1">
  <title>Ordem de tracado da letra Vav: 1 movimento</title>
  <defs>
    <marker id="avav" viewBox="0 0 10 10" refX="8" refY="5"
            markerWidth="5.5" markerHeight="5.5" orient="auto-start-reverse">
      <path d="M0,1 L9,5 L0,9 z" fill="#9E2B1E"/>
    </marker>
  </defs>
  <g transform="translate(73.26,169.24) scale(0.22665,-0.22665)">
    <path d="M-21 -14Q-37 -8 -35.0 18.5Q-33 45 -23 80Q-20 91 -4.0 131.0Q12 171 34.0 231.0Q56 291 81.0 362.0Q106 433 127 507Q145 569 167.5 600.5Q190 632 232 621Q262 613 267.5 579.5Q273 546 257 493Q245 453 224.0 398.0Q203 343 178.5 284.0Q154 225 130.0 171.0Q106 117 87.0 78.0Q68 39 59 25Q37 -10 18.0 -15.5Q-1 -21 -21 -14Z" fill="#C9C0AF"/>
  </g>
  <line x1="126.4" y1="43.9" x2="118.4" y2="61.2"
        stroke="#9E2B1E" stroke-width="2.6" stroke-linecap="round" marker-end="url(#avav)"/>
  <circle cx="132.6" cy="30.3" r="9" fill="#FFFFFF" stroke="#9E2B1E" stroke-width="2.4"/>
  <text x="132.6" y="34.5" text-anchor="middle"
        font-family="Inter, system-ui, sans-serif" font-size="12" font-weight="700"
        fill="#9E2B1E">1</text>
</svg>
